<?xml version="1.0" encoding="UTF-8" standalone="no"?>
<!-- Created with Inkscape (http://www.inkscape.org/) -->

<svg
   preserveAspectRatio="none"
   width="90"
   height="36"
   viewBox="0 0 23.812534 9.5250134"
   version="1.1"
   id="svg1"
   xml:space="preserve"
   sodipodi:docname="vscode-editor-actions.svg"
   inkscape:version="1.4.2 (f4327f4, 2025-05-13)"
   xmlns:inkscape="http://www.inkscape.org/namespaces/inkscape"
   xmlns:sodipodi="http://sodipodi.sourceforge.net/DTD/sodipodi-0.dtd"
   xmlns="http://www.w3.org/2000/svg"
   xmlns:svg="http://www.w3.org/2000/svg"><sodipodi:namedview
     id="namedview1"
     pagecolor="#ffffff"
     bordercolor="#000000"
     borderopacity="0.25"
     inkscape:showpageshadow="2"
     inkscape:pageopacity="0.0"
     inkscape:pagecheckerboard="0"
     inkscape:deskcolor="#d1d1d1"
     showgrid="true"
     inkscape:zoom="1.01"
     inkscape:cx="248.0198"
     inkscape:cy="151.9802"
     inkscape:window-width="2560"
     inkscape:window-height="1369"
     inkscape:window-x="2552"
     inkscape:window-y="-8"
     inkscape:window-maximized="1"
     inkscape:current-layer="filler"><inkscape:grid
       id="grid1"
       units="px"
       originx="0"
       originy="0"
       spacingx="0.26458371"
       spacingy="0.26458371"
       empcolor="#0099e5"
       empopacity="0.30196078"
       color="#0099e5"
       opacity="0.14901961"
       empspacing="5"
       enabled="true"
       visible="true" /><inkscape:grid
       id="grid2"
       units="px"
       originx="0"
       originy="0"
       spacingx="0.26458371"
       spacingy="0.26458371"
       empcolor="#0099e5"
       empopacity="0.30196078"
       color="#0099e5"
       opacity="0.14901961"
       empspacing="5"
       enabled="true"
       visible="true" /><inkscape:grid
       id="grid3"
       units="px"
       originx="0"
       originy="0"
       spacingx="0.26458371"
       spacingy="0.26458371"
       empcolor="#0099e5"
       empopacity="0.30196078"
       color="#0099e5"
       opacity="0.14901961"
       empspacing="5"
       enabled="true"
       visible="true" /><inkscape:grid
       id="grid4"
       units="px"
       originx="0"
       originy="0"
       spacingx="0.26458371"
       spacingy="0.26458371"
       empcolor="#0099e5"
       empopacity="0.30196078"
       color="#0099e5"
       opacity="0.14901961"
       empspacing="5"
       enabled="true"
       visible="true" /><inkscape:grid
       id="grid5"
       units="px"
       originx="0"
       originy="0"
       spacingx="0.26458371"
       spacingy="0.26458371"
       empcolor="#0099e5"
       empopacity="0.30196078"
       color="#0099e5"
       opacity="0.14901961"
       empspacing="5"
       enabled="true"
       visible="true" /></sodipodi:namedview><defs
     id="defs1"><rect
       x="0"
       y="40.818897"
       width="179.84126"
       height="33.970016"
       id="rect5" /></defs><g
     id="filler"
     transform="translate(-47.679163,-9.5250001)"
     inkscape:label="actions"><rect
       style="fill:#e5e5e5;fill-opacity:1;stroke:none;stroke-width:4.37647912;stroke-dasharray:none;stroke-opacity:1;paint-order:stroke fill markers"
       id="border"
       width="23.812382"
       height="9.525013"
       x="47.679199"
       y="-19.050014"
       rx="1.6848565e-08"
       transform="scale(1,-1)"
       inkscape:label="border"
       ry="1.6848565e-08" /><rect
       style="fill:#f8f8f8;fill-opacity:1;stroke:none;stroke-width:2.69806;stroke-dasharray:none;stroke-opacity:1;paint-order:stroke fill markers"
       id="background"
       width="23.812416"
       height="8.9958525"
       x="47.679199"
       y="9.7895765"
       rx="6.3703503e-08"
       ry="0.18446271"
       inkscape:label="background" /><g
       style="fill:#3b3b3b;fill-opacity:1"
       id="more"
       transform="matrix(0.26458371,0,0,0.26458371,63.289601,12.43542)"
       inkscape:label="more"><path
         d="m 4.0000002,8.0000018 a 1,1 0 1 1 -2,0 1,1 0 0 1 2,0 z m 4.9999998,0 a 1,1 0 1 1 -2,0 1,1 0 0 1 2,0 z m 5,0 a 1,1 0 1 1 -2,0 1,1 0 0 1 2,0 z"
         id="path1"
         style="fill:#3b3b3b;fill-opacity:1" /></g><g
       style="fill:#3b3b3b;fill-opacity:1"
       id="split"
       transform="matrix(0.26458371,0,0,0.26458371,56.410425,12.303129)"
       inkscape:label="split"><path
         d="M 14,2 H 3 L 2,3 v 11 l 1,1 h 11 l 1,-1 V 3 Z M 8,14 H 3 V 3 h 5 z m 6,0 H 9 V 3 h 5 z"
         id="path1-4"
         style="fill:#3b3b3b;fill-opacity:1" /></g><g
       style="fill:#3b3b3b;fill-opacity:1"
       id="go-to-file"
       transform="matrix(0.26458371,0,0,0.26458371,49.531249,12.303129)"
       inkscape:label="go-to-file"><path
         fill-rule="evenodd"
         clip-rule="evenodd"
         d="M 10.5713,1.13965 13.8496,4.44141 14,4.7998 V 14.5 L 13.5,15 H 2.5 L 2,14.5 V 8 h 1 v 6 H 13 V 6 H 9.5 L 9,5.5 V 2 H 8 V 1 h 2.2197 z M 10,5 h 3 L 10,2 Z"
         id="path1-6"
         style="fill:#3b3b3b;fill-opacity:1" /><path
         d="m 6.85352,2.14453 v 0.70703 l -2,2 L 4.14746,4.14453 5.29297,2.99902 H 2.5 c -0.827,0 -1.5,0.673 -1.5,1.5 1e-5,0.82699 0.67301,1.5 1.5,1.5 v 1 c -1.37799,0 -2.4999873264,-1.12101 -2.5,-2.5 0,-1.379 1.122,-2.5 2.5,-2.5 H 5.29297 L 4.14746,0.852539 4.85352,0.146484 Z"
         id="path2"
         style="fill:#3b3b3b;fill-opacity:1" /></g></g></svg>
