<?xml version="1.0" encoding="UTF-8"?>
<!-- Created with Inkscape (http://www.inkscape.org/) -->
<svg width="90" height="36" preserveAspectRatio="none" version="1.1" viewBox="0 0 23.813 9.525" xml:space="preserve" xmlns="http://www.w3.org/2000/svg"><g id="filler" transform="translate(-47.679 -9.525)"><rect id="border" transform="scale(1,-1)" x="47.679" y="-19.05" width="23.812" height="9.525" rx="1.6849e-8" ry="1.6849e-8" style="fill:#2b2b2b;paint-order:stroke fill markers"/><rect id="background" x="47.679" y="9.7896" width="23.812" height="8.9959" rx="6.3704e-8" ry=".18446" style="fill:#181818;paint-order:stroke fill markers"/><g id="more" transform="matrix(.26458 0 0 .26458 63.29 12.435)" style="fill:currentColor"><path d="m4 8a1 1 0 1 1-2 0 1 1 0 0 1 2 0zm5 0a1 1 0 1 1-2 0 1 1 0 0 1 2 0zm5 0a1 1 0 1 1-2 0 1 1 0 0 1 2 0z" style="fill:#ccc"/></g><g id="split" transform="matrix(.26458 0 0 .26458 56.41 12.303)" style="fill:currentColor"><path d="m14 2h-11l-1 1v11l1 1h11l1-1v-11zm-6 12h-5v-11h5zm6 0h-5v-11h5z" style="fill:#ccc"/></g><g id="go-to-file" transform="matrix(.26458 0 0 .26458 49.531 12.303)" style="fill:#ccc"><path d="m10.571 1.1396 3.2783 3.3018 0.1504 0.35839v9.7002l-0.5 0.5h-11l-0.5-0.5v-6.5h1v6h10v-8h-3.5l-0.5-0.5v-3.5h-1v-1h2.2197zm-0.5713 3.8604h3l-3-3z" clip-rule="evenodd" fill-rule="evenodd" style="fill:#ccc"/><path d="m6.8535 2.1445v0.70703l-2 2-0.70606-0.70703 1.1455-1.1455h-2.793c-0.827 0-1.5 0.673-1.5 1.5 1e-5 0.82699 0.67301 1.5 1.5 1.5v1c-1.378 0-2.5-1.121-2.5-2.5 0-1.379 1.122-2.5 2.5-2.5h2.793l-1.1455-1.1465 0.70606-0.70606z" style="fill:#ccc"/></g></g></svg>
