<?xml version="1.0" encoding="UTF-8"?>
<!-- Created with Inkscape (http://www.inkscape.org/) -->
<svg width="164" height="36" version="1.1" viewBox="0 0 43.392 9.525" xml:space="preserve" xmlns="http://www.w3.org/2000/svg"><g id="tab" transform="translate(.23132 -9.525)"><rect id="border" x="-.23132" y="9.525" width="43.392" height="9.525" rx=".00059758" ry=".19292" style="fill:#2b2b2b;paint-order:stroke fill markers"/><rect id="container" x=".033265" y="10.054" width="42.863" height="8.9958" rx="0" style="fill:#1f1f1f;paint-order:stroke fill markers"/><rect id="top-bar" x=".033265" y="9.7896" width="42.863" height=".26458" rx=".00026193" ry=".13229" style="fill:#0078d4;paint-order:stroke fill markers"/><text id="text" transform="matrix(.26458 0 0 .26458 8.4488 1.8458)" style="fill:#ffffff;font-size:13px;shape-inside:url(#rect5);white-space:pre" xml:space="preserve"><tspan x="0" y="52.646737"><tspan style="font-family:'Segoe UI'">Preview README.md</tspan></tspan></text><path id="icon" d="m3.2083 12.965h3.175l0.26458 0.26458v2.6458l-0.26458 0.26458h-3.175l-0.26458-0.26458v-2.6458zm0 2.9104h3.175v-2.6458h-3.175zm2.9104-2.3812h-2.6458v0.79375h2.6458zm-0.26458 0.52917h-2.1167v-0.26458h2.1167zm-0.79375 1.5875h1.0583v-1.0583h-1.0583zm0.26458-0.79375h0.52917v0.52917h-0.52917zm-0.79375-0.26458h-1.0583v0.26458h1.0583zm-1.0583 0.79375h1.0583v0.26458h-1.0583z" clip-rule="evenodd" fill-rule="evenodd" style="fill:#c5c5c5;paint-order:stroke fill markers"/></g></svg>
